<?xml version="1.0" encoding="utf-8"?>
<!-- Generator: Adobe Illustrator 28.1.0, SVG Export Plug-In . SVG Version: 6.00 Build 0)  -->
<svg version="1.1" id="Layer_1"
	xmlns="http://www.w3.org/2000/svg"
	xmlns:xlink="http://www.w3.org/1999/xlink" x="0px" y="0px" viewBox="0 0 24 24" style="enable-background:new 0 0 24 24;" xml:space="preserve">
	<style type="text/css">
	.st0{fill:#FFFFFF;}
	</style>
	<circle class="st0" cx="12" cy="12" r="12"/>
	<g>
		<path d="M21.93,12.15c0-2.77-0.94-5.06-2.87-6.97c-1.91-1.93-4.25-2.9-7.06-2.9c-2.79,0-5.13,0.97-7.06,2.9
		c-1.91,1.91-2.87,4.25-2.87,6.99c0,0.79,0.1,1.54,0.26,2.26l9.22-7.27h4.76v13.85c1-0.47,1.93-1.07,2.76-1.88
		C20.99,17.22,21.93,14.9,21.93,12.15z"/>
		<path d="M5.26,19.42c1.34,1.21,2.88,2.02,4.66,2.35v-6L5.26,19.42z"/>
	</g>
</svg>
